<svg width="48" height="48" viewBox="0 0 48 48" fill="none" xmlns="http://www.w3.org/2000/svg">
<path d="M48 0H0V48H48V0Z" fill="#323238"/>
<path d="M33.9467 14H14.7433C13.2282 14 12 14.9551 12 16.1333V31.0667C12 32.2449 13.2282 33.2 14.7433 33.2H33.9467C35.4618 33.2 36.69 32.2449 36.69 31.0667V16.1333C36.69 14.9551 35.4618 14 33.9467 14ZM19.5442 29.4667C19.5442 29.7612 19.2371 30 18.8583 30H16.8008C16.4221 30 16.115 29.7612 16.115 29.4667V22C16.115 21.7054 16.4221 21.4667 16.8008 21.4667H18.8583C19.2371 21.4667 19.5442 21.7054 19.5442 22V29.4667ZM17.8296 20.4C16.6933 20.4 15.7721 19.6837 15.7721 18.8C15.7721 17.9163 16.6933 17.2 17.8296 17.2C18.9659 17.2 19.8871 17.9163 19.8871 18.8C19.8871 19.6837 18.9659 20.4 17.8296 20.4ZM32.575 29.4667C32.575 29.7612 32.2679 30 31.8892 30H29.8317C29.4529 30 29.1458 29.7612 29.1458 29.4667V25.4667C29.1458 24.583 28.2247 23.8667 27.0883 23.8667C25.952 23.8667 25.0308 24.583 25.0308 25.4667V29.4667C25.0308 29.7612 24.7238 30 24.345 30H22.2875C21.9087 30 21.6017 29.7612 21.6017 29.4667V22C21.6017 21.7054 21.9087 21.4667 22.2875 21.4667H24.345C24.7238 21.4667 25.0308 21.7054 25.0308 22V22.64C25.8652 21.6527 27.3311 21.1032 28.8441 21.2107C31.008 21.4182 32.6195 22.8648 32.575 24.56V29.4667Z" fill="white"/>
</svg>
